<svg enable-background="new 0 0 100.6 100.6" viewBox="0 0 100.6 100.6" xmlns="http://www.w3.org/2000/svg"><path d="m62.8 40.8c-5.5 0-10.8 1.7-15.2 4.9v-35.8c-.1-2.7-2.3-4.8-5-4.7h-.4c-2.7-.1-4.9 2.1-5 4.7v21.2l-4.7-15.1c-.9-2.7-3.8-4.2-6.5-3.4l-.2.1c-2.6.7-4.3 3.3-3.6 6v.2l5.9 19.1-6.8-10.5c-1.6-2.3-4.7-3-7.2-1.6-2.3 1.3-3.2 4.2-1.9 6.6.1 0 .2 0 .2.1l24.7 38v21.5c.1 1.9 1.7 3.4 3.6 3.4h3.3c1.9 0 3.5-1.5 3.6-3.4v-5.6c4.4 3.2 9.8 4.9 15.2 4.9 14 .4 25.7-10.5 26.1-24.5s-10.5-25.6-24.5-26.1c-.5 0-1.1 0-1.6 0zm-.3 39.8c-7.9-.3-14.1-6.9-13.8-14.9.3-7.9 6.9-14.1 14.9-13.8 7.7.3 13.8 6.7 13.8 14.4-.2 8.1-6.8 14.5-14.9 14.3z"/></svg>